<?xml version="1.0" encoding="utf-8"?>
<!-- Generator: Adobe Illustrator 27.0.0, SVG Export Plug-In . SVG Version: 6.00 Build 0)  -->
<svg version="1.1" id="Layer_1" xmlns="http://www.w3.org/2000/svg" xmlns:xlink="http://www.w3.org/1999/xlink" x="0px" y="0px"
	 viewBox="0 0 246.9 93.9" style="enable-background:new 0 0 246.9 93.9;" xml:space="preserve">
<style type="text/css">
	.st0{fill:#231812;}
	.st1{fill-rule:evenodd;clip-rule:evenodd;fill:#F05D23;}
	.st2{fill-rule:evenodd;clip-rule:evenodd;fill:#231812;}
	.st3{fill:#F05D23;}
	.st4{fill-rule:evenodd;clip-rule:evenodd;fill:#231F20;}
	.st5{fill:#FFFFFF;}
	.st6{fill-rule:evenodd;clip-rule:evenodd;fill:#FFFFFF;}
</style>
<g>
	<g>
		<g>
			<path class="st0" d="M122.9,29.1c3.2,0.1,5.1-2.4,5.3-4.8h-6.7v-2.5h9.8c0.5,4.9-2.2,9.8-8.3,9.8c-5,0-8.8-3.7-8.8-8.8
				c0-5.1,3.7-9,8.7-9c4.2,0,7.2,2.5,8.3,6h-2.9c-0.8-2-2.8-3.5-5.4-3.5c-3.4,0.1-5.8,2.9-5.8,6.4C117,26.4,119.5,29.1,122.9,29.1z"
				/>
			<path class="st0" d="M138.8,18.1v2.1c-1.8,0.1-2.5,0.8-2.5,2.2l0,8.9h-2.7l0-9.4C133.6,19,136.1,18.1,138.8,18.1z"/>
			<path class="st0" d="M139.5,24.7c0-4.2,3.1-6.9,6.9-6.9c3.8,0,6.9,2.7,6.9,6.9c0,4.2-3,6.9-6.9,6.9
				C142.6,31.7,139.5,29,139.5,24.7z M146.4,29.5c2.6,0,4.2-2,4.2-4.8c0-2.7-1.8-4.7-4.2-4.7c-2.5,0-4.2,2-4.2,4.7
				C142.2,27.5,143.9,29.5,146.4,29.5z"/>
			<path class="st0" d="M153.4,18.1h2.9l3.8,9.1l3.4-9.1h3l3.4,9.1l3.7-9.1h2.9l-5.7,13.3h-2.1l-3.8-10.1l-3.8,10.1h-2.1L153.4,18.1
				z"/>
			<path class="st0" d="M180.2,27.6l0-6h-1.9v-2.1h1.9v-5.4h2.6l0,5.4h2v2.1h-2l0,5.5c0,1.6,0.8,2.2,2.5,2.1v2.1
				C182.6,31.5,180.2,30.7,180.2,27.6z"/>
			<path class="st0" d="M187.6,14.1h2.7V20c0.6-1.2,2-2.1,3.7-2.1c3.6,0,5.6,2.7,5.6,6.4v7.1h-2.7v-7.1c0-2.6-1.2-4.1-3.2-4.1
				c-2.1,0-3.4,1.5-3.4,4.2v7h-2.7V14.1z"/>
			<path class="st0" d="M201.8,18.1h2.7v2.2c0.8-1.4,2.6-2.4,4.5-2.5c3.9-0.1,6.5,2.7,6.5,6.7c0,4.2-2.7,7-6.5,7
				c-1.8,0-3.6-0.9-4.5-2.6v6.3h-2.7V18.1z M208.7,29.3c2.4,0,4.2-1.9,4.2-4.7c0-2.8-1.9-4.6-4.2-4.6c-2.5,0-4.1,1.9-4.1,4.5
				C204.5,27.4,206.1,29.3,208.7,29.3z"/>
			<path class="st0" d="M217.5,24.8c0-4,2.6-6.9,6.5-6.9c1.8,0,3.6,0.8,4.5,2.4v-2.1h2.7v13.3h-2.7v-2.3c-0.8,1.6-2.6,2.6-4.5,2.6
				C220.1,31.8,217.5,28.9,217.5,24.8z M224.3,29.5c2.5-0.1,4.1-1.9,4.1-4.9c0-2.5-1.6-4.4-4.1-4.4c-2.5,0-4.2,2-4.2,4.6
				C220.2,27.8,222,29.5,224.3,29.5z"/>
			<path class="st0" d="M233.3,24.9c0-4.2,2.7-7,6.5-7c1.8,0,3.6,0.9,4.5,2.6v-6.4h2.7v17.3h-2.7v-2.2c-0.8,1.4-2.6,2.5-4.5,2.5
				C235.9,31.8,233.3,29,233.3,24.9z M240.1,29.5c2.5-0.1,4.1-1.9,4.1-4.6c0-2.9-1.6-4.8-4.1-4.8c-2.5,0-4.2,1.9-4.2,4.7
				C235.9,27.6,237.8,29.5,240.1,29.5z"/>
		</g>
		<g>
			<path class="st0" d="M114.1,45.1c0-5.1,3.7-9,8.7-9c4.2,0,7.2,2.5,8.3,6h-2.9c-1-2-3-3.5-5.4-3.5c-3.3,0-5.8,2.9-5.8,6.4
				c0,3.6,2.4,6.3,5.8,6.3c2.8,0,4.6-1.8,5.4-4.1h2.9c-0.8,3.8-3.8,6.6-8.3,6.6C117.8,53.9,114.1,50.3,114.1,45.1z"/>
			<path class="st0" d="M133.3,47.1c0-4.2,3.1-6.9,6.9-6.9c3.8,0,6.9,2.7,6.9,6.9c0,4.2-3,6.9-6.9,6.9
				C136.4,54,133.3,51.3,133.3,47.1z M140.3,51.8c2.6,0,4.2-2,4.2-4.8c0-2.7-1.8-4.7-4.2-4.7c-2.5,0-4.2,2-4.2,4.7
				C136,49.8,137.7,51.8,140.3,51.8z"/>
			<path class="st0" d="M149.4,40.4h2.7v2.1c0.7-1.5,2.6-2.4,4.3-2.4c3.5,0.1,4.9,2.3,4.9,5.9v7.6h-2.7v-7.6c0-2.3-0.9-3.6-3-3.6
				c-1.8,0-3.5,1.3-3.5,3.7v7.6h-2.7V40.4z"/>
			<path class="st0" d="M163.4,49.3h2.7c0,1.4,0.9,2.4,2.3,2.5c1.4,0.1,2.3-0.6,2.4-1.7c0-1.2-0.7-1.9-2.7-2.1
				c-2.8-0.4-4.6-1.4-4.6-4c0-2.4,2-3.8,4.6-3.7c3,0,5,1.7,4.9,4.5h-2.6c0-1.7-0.9-2.4-2.4-2.4c-1.1,0-2,0.5-2,1.6
				c0,0.9,0.5,1.7,2.4,1.9c3.3,0.4,5,1.5,5,4.1c0,2.5-1.8,4.1-5,4C165.7,53.9,163.4,52.3,163.4,49.3z"/>
			<path class="st0" d="M187.4,53.7h-2.7v-2.1c-0.7,1.5-2.6,2.4-4.3,2.4c-3.5-0.1-4.9-2.3-4.9-5.9v-7.6h2.7v7.6c0,2.3,0.9,3.6,3,3.6
				c1.8,0,3.5-1.3,3.5-3.7v-7.6h2.7V53.7z"/>
			<path class="st0" d="M189.7,49.8l0-13.4h2.7l0,13c0,1.4,0.4,1.9,1.4,2.1l0,2.2C191.6,53.5,189.7,52.7,189.7,49.8z"/>
			<path class="st0" d="M196.3,49.9l0-6h-1.9v-2.1h1.9v-5.4h2.6l0,5.4h2v2.1h-2l0,5.5c0,1.6,0.8,2.2,2.5,2.1v2.1
				C198.8,53.8,196.3,53,196.3,49.9z"/>
			<path class="st0" d="M205.2,36.4c0.8,0,1.5,0.6,1.5,1.4c0,0.8-0.7,1.4-1.5,1.4c-0.8,0-1.5-0.6-1.5-1.4
				C203.6,37,204.3,36.4,205.2,36.4z M203.9,40.4h2.6v13.3h-2.6V40.4z"/>
			<path class="st0" d="M208.9,40.4h2.7v2.1c0.7-1.5,2.6-2.4,4.3-2.4c3.5,0.1,4.9,2.3,4.9,5.9v7.6H218v-7.6c0-2.3-0.9-3.6-3-3.6
				c-1.8,0-3.5,1.3-3.5,3.7v7.6h-2.7V40.4z"/>
			<path class="st0" d="M223.2,54.4h2.7c0.6,1.5,2,2.6,3.9,2.6c2,0,3.9-1.3,3.9-3.8v-1c-1,1.4-2.4,1.8-4,1.8c-3.9,0-6.9-2.7-6.9-6.9
				c0-4.2,3.1-6.9,6.9-6.9c2,0,3.9,0.8,5,2.3c0.6-1.4,1.8-2,3.2-2.1v2.2c-1,0.2-1.5,0.7-1.5,2.2l0.1,7.2c0.1,4.5-3.2,7-6.8,7
				C226.6,59.1,224,57.2,223.2,54.4z M229.8,51.8c2.6,0,4.2-2,4.2-4.8c0-2.7-1.8-4.7-4.2-4.7c-2.5,0-4.2,2-4.2,4.7
				C225.6,49.8,227.2,51.8,229.8,51.8z"/>
		</g>
		<g>
			<path class="st0" d="M122.9,73.8c3.2,0.1,5.1-2.4,5.3-4.8h-6.7v-2.5h9.8c0.5,4.9-2.2,9.8-8.3,9.8c-5,0-8.8-3.7-8.8-8.8
				c0-5.1,3.7-9,8.7-9c4.2,0,7.2,2.5,8.3,6h-2.9c-0.8-2-2.8-3.5-5.4-3.5c-3.4,0.1-5.8,2.9-5.8,6.4C117,71,119.5,73.7,122.9,73.8z"/>
			<path class="st0" d="M138.8,62.8v2.1c-1.8,0.1-2.5,0.8-2.5,2.2l0,8.9h-2.7l0-9.4C133.6,63.6,136.1,62.8,138.8,62.8z"/>
			<path class="st0" d="M139.5,69.4c0-4.2,3.1-6.9,6.9-6.9c3.8,0,6.9,2.7,6.9,6.9c0,4.2-3,6.9-6.9,6.9
				C142.6,76.3,139.5,73.6,139.5,69.4z M146.4,74.1c2.6,0,4.2-2,4.2-4.8c0-2.7-1.8-4.7-4.2-4.7c-2.5,0-4.2,2-4.2,4.7
				C142.2,72.1,143.9,74.1,146.4,74.1z"/>
			<path class="st0" d="M167.3,76h-2.7V74c-0.7,1.5-2.6,2.4-4.3,2.4c-3.5-0.1-4.9-2.3-4.9-5.9v-7.6h2.7v7.6c0,2.3,0.9,3.6,3,3.6
				c1.8,0,3.5-1.3,3.5-3.7v-7.6h2.7V76z"/>
			<path class="st0" d="M169.6,62.8h2.7V65c0.8-1.4,2.6-2.4,4.5-2.5c3.9-0.1,6.5,2.7,6.5,6.7c0,4.2-2.7,7-6.5,7
				c-1.8,0-3.6-0.9-4.5-2.6v6.3h-2.7V62.8z M176.5,74c2.4,0,4.2-1.9,4.2-4.7c0-2.8-1.9-4.6-4.2-4.6c-2.5,0-4.1,1.9-4.1,4.5
				C172.3,72,173.9,74,176.5,74z"/>
		</g>
	</g>
	<path class="st1" d="M54.1,0.2h28.8c5.9,0,10.7,4.8,10.7,10.7v28.9h-4.5V10.9c0-0.2,0-0.4,0-0.6c0-0.3-0.2-0.6-0.5-0.7
		c-0.3-0.1-0.6,0-0.8,0.2c-5.4,5.4-30.9,30.9-30.9,30.9c-1-1.5-2.2-2.8-3.8-3.7L84,6.1c0.2-0.2,0.3-0.5,0.2-0.8
		c-0.1-0.3-0.4-0.5-0.7-0.5c-0.2,0-0.4,0-0.7,0H54.1V0.2z"/>
	<path class="st2" d="M49.5,0.1v35.4c-0.8-0.2-1.7-0.3-2.6-0.3c-0.9,0-1.8,0.1-2.6,0.3v0c-5.3,1.2-9.2,5.9-9.2,11.5
		c0,6.5,5.3,11.8,11.8,11.8c5.3,0,9.7-3.4,11.2-8.2c0.1-0.3,0-0.5-0.1-0.7c-0.2-0.2-0.4-0.3-0.7-0.3c-3.1,0-11.5,0-11.5,0v-5h48
		c0,0.8,0.1,1.6,0.1,2.5c0,0.8,0,1.7-0.1,2.5H65.4c-0.2,0-0.4,0.2-0.4,0.4c0,0.2,0.1,0.4,0.3,0.5l27.1,8.8c-0.4,1.6-0.9,3.2-1.5,4.7
		L63.7,55c-0.2-0.1-0.4,0-0.5,0.2s0,0.4,0.1,0.6l23,16.7c-0.9,1.4-1.9,2.7-2.9,4l-23-16.7c-0.2-0.1-0.4-0.1-0.6,0
		c-0.2,0.2-0.2,0.4,0,0.6l16.7,23c-1.3,1-2.6,2-4,2.9l-16.7-23c-0.1-0.2-0.4-0.2-0.6-0.1c-0.2,0.1-0.3,0.3-0.2,0.5l8.8,27.1
		c-1.5,0.6-3.1,1.1-4.7,1.5l-8.8-27.1C50.2,65,50,64.9,49.8,65c-0.2,0-0.4,0.2-0.4,0.4v28.5c-0.8,0-1.6,0.1-2.5,0.1
		c-0.8,0-1.7,0-2.5-0.1V65.4c0-0.2-0.2-0.4-0.4-0.4c-0.2,0-0.4,0.1-0.5,0.3l-8.8,27.1c-1.6-0.4-3.2-0.9-4.7-1.5l8.8-27.1
		c0.1-0.2,0-0.4-0.2-0.5s-0.4,0-0.6,0.1l-16.7,23c-1.4-0.9-2.7-1.9-4-2.9l16.7-23c0.1-0.2,0.1-0.4,0-0.6c-0.2-0.2-0.4-0.2-0.6,0
		l-23,16.7c-1-1.3-2-2.6-2.9-4l23-16.7c0.2-0.1,0.2-0.4,0.1-0.6c-0.1-0.2-0.3-0.3-0.5-0.2L3.1,63.8c-0.6-1.5-1.1-3.1-1.5-4.7
		l27.1-8.8c0.2-0.1,0.3-0.3,0.3-0.5c0-0.2-0.2-0.4-0.4-0.4H0.1C0,48.6,0,47.8,0,47c0-0.8,0-1.6,0.1-2.5h28.5c0.2,0,0.4-0.2,0.4-0.4
		c0-0.2-0.1-0.4-0.3-0.5L1.6,34.8c0.4-1.6,0.9-3.2,1.5-4.7l27.1,8.8c0.2,0.1,0.4,0,0.5-0.2s0-0.4-0.1-0.6l-23-16.7
		c0.9-1.4,1.9-2.7,2.9-4l23,16.7c0.2,0.1,0.4,0.1,0.6,0c0.2-0.2,0.2-0.4,0-0.6l-16.7-23c1.3-1,2.6-2,4-2.9l16.7,23
		c0.1,0.2,0.4,0.2,0.6,0.1c0.2-0.1,0.3-0.3,0.2-0.5L30.1,3.1c1.5-0.6,3.1-1.1,4.7-1.5l8.7,26.8c0.1,0.2,0.3,0.3,0.5,0.3
		c0.2,0,0.4-0.2,0.4-0.4V0.1C45.2,0,46.1,0,47,0S48.7,0,49.5,0.1z"/>
</g>
</svg>
