<?xml version="1.0" encoding="UTF-8"?>
<svg id="Layer_1" data-name="Layer 1" xmlns="http://www.w3.org/2000/svg" viewBox="0 0 514.72 93.91">
  <defs>
    <style>
      .cls-1, .cls-2 {
        fill: #f05d23;
      }

      .cls-3, .cls-4 {
        fill: #231812;
      }

      .cls-4, .cls-2 {
        fill-rule: evenodd;
      }
    </style>
  </defs>
  <path class="cls-3" d="M122.89,29.23c3.22,.05,5.07-2.35,5.28-4.81h-6.7v-2.48h9.76c.55,4.86-2.25,9.81-8.34,9.81-5.05,0-8.79-3.66-8.79-8.81s3.69-8.97,8.71-8.97c4.18,0,7.19,2.54,8.29,6.02h-2.9c-.81-1.96-2.77-3.53-5.39-3.51-3.43,.05-5.83,2.88-5.83,6.44s2.51,6.3,5.91,6.33"/>
  <path class="cls-3" d="M138.79,18.24v2.12c-1.81,.05-2.49,.84-2.49,2.2l-.03,8.95h-2.69l.03-9.42c0-3.01,2.51-3.85,5.18-3.85"/>
  <path class="cls-3" d="M139.49,24.86c0-4.21,3.11-6.88,6.93-6.88s6.91,2.67,6.91,6.88-3.04,6.91-6.91,6.91-6.93-2.69-6.93-6.91m6.93,4.76c2.56,0,4.24-2.04,4.24-4.76s-1.78-4.73-4.24-4.73-4.24,1.99-4.24,4.73,1.67,4.76,4.24,4.76"/>
  <polygon class="cls-3" points="153.41 18.24 156.28 18.24 160.08 27.29 163.45 18.24 166.41 18.24 169.83 27.29 173.57 18.24 176.45 18.24 170.8 31.5 168.74 31.5 164.92 21.43 161.12 31.5 159.06 31.5 153.41 18.24"/>
  <path class="cls-3" d="M180.16,27.71l-.03-5.99h-1.88v-2.14h1.88v-5.36h2.64l.03,5.36h2.01v2.14h-2.01l.03,5.49c0,1.6,.79,2.22,2.51,2.14v2.15c-2.69,.13-5.18-.71-5.18-3.79"/>
  <path class="cls-3" d="M187.64,14.21h2.67v5.94c.57-1.2,2.04-2.09,3.66-2.09,3.58,0,5.57,2.69,5.57,6.35v7.09h-2.67v-7.09c0-2.61-1.23-4.08-3.16-4.08-2.15,0-3.4,1.49-3.4,4.21v6.96h-2.67V14.21Z"/>
  <path class="cls-3" d="M201.84,18.24h2.69v2.2c.84-1.44,2.56-2.43,4.5-2.46,3.87-.05,6.46,2.69,6.46,6.72s-2.67,7.01-6.49,6.98c-1.78,0-3.64-.89-4.47-2.62v6.25h-2.69V18.24Zm6.83,11.22c2.43,.03,4.16-1.86,4.16-4.71s-1.88-4.63-4.16-4.58c-2.46,.03-4.13,1.86-4.13,4.5,0,2.83,1.57,4.76,4.13,4.79"/>
  <path class="cls-3" d="M217.48,24.89c0-3.98,2.64-6.91,6.49-6.88,1.78,0,3.61,.79,4.5,2.38v-2.14h2.67v13.26h-2.67v-2.33c-.81,1.6-2.56,2.56-4.5,2.62-3.9,.13-6.49-2.8-6.49-6.9m6.85,4.71c2.46-.05,4.13-1.91,4.13-4.92,0-2.46-1.57-4.42-4.13-4.45-2.49-.03-4.16,1.99-4.16,4.6,0,3.03,1.83,4.79,4.16,4.76"/>
  <path class="cls-3" d="M233.26,24.99c0-4.16,2.69-7.01,6.49-6.99,1.8,0,3.64,.86,4.5,2.62v-6.41h2.67V31.5h-2.67v-2.25c-.84,1.44-2.59,2.49-4.5,2.54-3.87,.13-6.49-2.72-6.49-6.8m6.85,4.6c2.46-.05,4.13-1.94,4.13-4.58,0-2.85-1.57-4.76-4.13-4.79-2.46-.03-4.16,1.86-4.16,4.71s1.86,4.68,4.16,4.66"/>
  <path class="cls-3" d="M114.1,45.24c0-5.13,3.69-8.97,8.71-8.97,4.18,0,7.19,2.54,8.29,6.02h-2.93c-.99-1.96-2.96-3.48-5.36-3.48-3.35,0-5.81,2.85-5.81,6.41s2.43,6.3,5.81,6.3c2.8,0,4.6-1.78,5.44-4.08h2.9c-.84,3.82-3.77,6.62-8.34,6.62-5,0-8.71-3.66-8.71-8.81"/>
  <path class="cls-3" d="M133.35,47.18c0-4.21,3.11-6.88,6.93-6.88s6.91,2.67,6.91,6.88-3.04,6.91-6.91,6.91-6.93-2.69-6.93-6.91m6.93,4.76c2.56,0,4.24-2.04,4.24-4.76s-1.78-4.73-4.24-4.73-4.24,1.99-4.24,4.73,1.67,4.76,4.24,4.76"/>
  <path class="cls-3" d="M149.35,40.56h2.69v2.12c.68-1.54,2.64-2.43,4.26-2.41,3.45,.05,4.89,2.27,4.89,5.91v7.64h-2.69v-7.64c0-2.28-.86-3.61-3.01-3.61-1.8-.03-3.45,1.31-3.45,3.66v7.59h-2.69v-13.26Z"/>
  <path class="cls-3" d="M163.42,49.43h2.67c.03,1.36,.86,2.41,2.33,2.49,1.36,.08,2.33-.58,2.35-1.73,.03-1.2-.73-1.86-2.72-2.09-2.82-.37-4.63-1.44-4.63-4.03,0-2.43,2.01-3.79,4.63-3.74,2.96,.03,5,1.67,4.92,4.53h-2.56c0-1.7-.94-2.38-2.35-2.41-1.12,0-1.99,.55-1.96,1.62,0,.92,.55,1.7,2.38,1.94,3.32,.44,5,1.46,5,4.05-.03,2.46-1.83,4.05-5.05,4-2.75-.08-5.02-1.67-5-4.63"/>
  <path class="cls-3" d="M187.38,53.82h-2.69v-2.07c-.68,1.54-2.64,2.38-4.26,2.35-3.45-.05-4.89-2.28-4.89-5.91v-7.64h2.69v7.64c0,2.28,.86,3.61,3.01,3.61,1.8,.03,3.45-1.31,3.45-3.66v-7.59h2.69v13.26Z"/>
  <path class="cls-3" d="M189.68,49.9l.03-13.37h2.67l-.03,13.03c0,1.36,.44,1.91,1.41,2.07l-.03,2.2c-2.17-.18-4.05-.99-4.05-3.92"/>
  <path class="cls-3" d="M196.27,50.03l-.03-5.99h-1.88v-2.14h1.88v-5.36h2.64l.03,5.36h2.01v2.14h-2.01l.03,5.49c0,1.6,.79,2.22,2.51,2.15v2.15c-2.69,.13-5.18-.71-5.18-3.79"/>
  <path class="cls-3" d="M205.16,36.53c.84,0,1.54,.58,1.54,1.44s-.73,1.41-1.54,1.41-1.54-.6-1.54-1.41c0-.86,.71-1.44,1.54-1.44m-1.28,4.03h2.64v13.26h-2.64v-13.26Z"/>
  <path class="cls-3" d="M208.85,40.56h2.69v2.12c.68-1.54,2.64-2.43,4.26-2.41,3.45,.05,4.89,2.27,4.89,5.91v7.64h-2.69v-7.64c0-2.28-.86-3.61-3.01-3.61-1.8-.03-3.45,1.31-3.45,3.66v7.59h-2.69v-13.26Z"/>
  <path class="cls-3" d="M223.24,54.5h2.75c.58,1.47,2.01,2.56,3.87,2.56,1.99,0,3.95-1.31,3.92-3.77v-1.02c-1.02,1.36-2.41,1.81-3.98,1.81-3.87,0-6.93-2.69-6.93-6.91s3.11-6.88,6.93-6.88c1.99,0,3.87,.84,5.02,2.33,.63-1.39,1.8-1.96,3.24-2.07v2.2c-.97,.18-1.49,.73-1.46,2.22l.05,7.22c.05,4.5-3.19,7.01-6.8,7.01-3.22,0-5.86-1.86-6.62-4.71m6.57-2.56c2.56,0,4.21-2.04,4.21-4.76s-1.75-4.73-4.21-4.73-4.24,1.99-4.24,4.73,1.67,4.76,4.24,4.76"/>
  <path class="cls-3" d="M122.89,73.87c3.22,.05,5.07-2.35,5.28-4.81h-6.7v-2.48h9.76c.55,4.86-2.25,9.81-8.34,9.81-5.05,0-8.79-3.66-8.79-8.82s3.69-8.97,8.71-8.97c4.18,0,7.19,2.54,8.29,6.02h-2.9c-.81-1.96-2.77-3.53-5.39-3.5-3.43,.05-5.83,2.88-5.83,6.43s2.51,6.3,5.91,6.33"/>
  <path class="cls-3" d="M138.79,62.88v2.12c-1.81,.05-2.49,.84-2.49,2.2l-.03,8.95h-2.69l.03-9.42c0-3.01,2.51-3.85,5.18-3.85"/>
  <path class="cls-3" d="M139.49,69.5c0-4.21,3.11-6.88,6.93-6.88s6.91,2.67,6.91,6.88-3.04,6.91-6.91,6.91-6.93-2.69-6.93-6.91m6.93,4.76c2.56,0,4.24-2.04,4.24-4.76s-1.78-4.73-4.24-4.73-4.24,1.99-4.24,4.73,1.67,4.76,4.24,4.76"/>
  <path class="cls-3" d="M167.35,76.14h-2.69v-2.07c-.68,1.54-2.64,2.38-4.26,2.35-3.45-.05-4.89-2.28-4.89-5.91v-7.64h2.69v7.64c0,2.27,.86,3.61,3.01,3.61,1.8,.03,3.45-1.31,3.45-3.66v-7.59h2.69v13.26Z"/>
  <path class="cls-3" d="M169.65,62.88h2.69v2.2c.84-1.44,2.56-2.43,4.5-2.46,3.87-.05,6.46,2.69,6.46,6.72s-2.67,7.01-6.49,6.98c-1.78,0-3.64-.89-4.47-2.62v6.25h-2.69v-17.08Zm6.83,11.22c2.43,.03,4.16-1.86,4.16-4.71s-1.88-4.63-4.16-4.58c-2.46,.03-4.13,1.86-4.13,4.5,0,2.83,1.57,4.76,4.13,4.79"/>
  <path class="cls-2" d="M54.12,.19h28.79c5.94,0,10.75,4.81,10.75,10.75v28.87h-4.49V10.94c0-.21-.01-.43-.03-.64-.03-.3-.23-.56-.52-.66-.29-.1-.6-.03-.82,.18-5.41,5.41-30.86,30.88-30.86,30.88-.95-1.52-2.24-2.8-3.77-3.75L84.04,6.06c.22-.22,.29-.54,.19-.82-.1-.29-.36-.49-.67-.52-.21-.02-.43-.03-.65-.03h-28.79V.19Z"/>
  <path class="cls-4" d="M49.54,.07V35.47c-.83-.19-1.69-.28-2.58-.28s-1.75,.1-2.58,.28h0c-5.26,1.17-9.2,5.87-9.2,11.49,0,6.5,5.28,11.78,11.78,11.78,5.26,0,9.72-3.45,11.23-8.21,.08-.25,.03-.53-.13-.74-.16-.21-.41-.34-.68-.34-3.07,0-11.54,0-11.54,0v-4.95h48c.04,.82,.06,1.64,.06,2.47s-.02,1.66-.07,2.49h-28.47c-.22,0-.4,.16-.44,.37-.03,.22,.09,.42,.3,.49l27.08,8.8c-.43,1.6-.94,3.18-1.53,4.71l-27.08-8.8c-.21-.07-.43,.03-.53,.22-.1,.19-.04,.43,.13,.56l23.03,16.73c-.9,1.39-1.88,2.72-2.92,4l-23.02-16.73c-.18-.13-.42-.11-.57,.05-.15,.15-.17,.4-.05,.57l16.73,23.02c-1.28,1.04-2.62,2.01-4,2.91l-16.73-23.02c-.13-.18-.37-.23-.56-.13-.19,.1-.29,.32-.22,.53l8.8,27.07c-1.53,.59-3.1,1.1-4.71,1.53l-8.8-27.07c-.07-.21-.28-.33-.49-.3s-.37,.22-.37,.44v28.46c-.82,.04-1.65,.06-2.48,.06s-1.66-.02-2.48-.06v-28.46c0-.22-.16-.4-.37-.44-.22-.03-.42,.09-.49,.3l-8.8,27.07c-1.6-.43-3.18-.94-4.71-1.53l8.8-27.07c.07-.21-.03-.43-.22-.53-.19-.1-.43-.04-.56,.13l-16.73,23.02c-1.39-.9-2.72-1.88-4-2.91l16.73-23.02c.13-.18,.11-.42-.04-.57s-.4-.17-.57-.05l-23.02,16.73c-1.04-1.28-2.01-2.62-2.92-4l23.03-16.73c.18-.13,.23-.36,.13-.56-.1-.19-.32-.29-.53-.22L3.12,63.81c-.59-1.53-1.1-3.1-1.53-4.71l27.08-8.8c.21-.07,.33-.27,.3-.49s-.22-.37-.44-.37H.07C.02,48.62,0,47.79,0,46.96s.02-1.65,.06-2.47H28.54c.22,0,.4-.16,.44-.37,.03-.22-.09-.42-.3-.49L1.59,34.83c.43-1.61,.94-3.18,1.53-4.71l27.09,8.8c.21,.07,.43-.03,.53-.22,.1-.19,.04-.43-.13-.56L7.56,21.41c.9-1.39,1.87-2.72,2.91-4l23.03,16.73c.18,.13,.42,.11,.57-.05,.15-.15,.17-.4,.04-.57L17.39,10.49c1.28-1.04,2.62-2.01,4-2.92l16.74,23.04c.13,.18,.36,.23,.56,.13,.19-.1,.29-.32,.22-.53L30.11,3.12c1.53-.59,3.1-1.1,4.71-1.53l8.7,26.77c.07,.21,.27,.33,.49,.3,.22-.03,.37-.22,.37-.44V.07C45.23,.02,46.09,0,46.96,0s1.73,.02,2.58,.07"/>
  <rect class="cls-3" x="267.4" y="15.82" width="3" height="66.01"/>
  <g>
    <rect class="cls-1" x="290.38" y="23.2" width="2.42" height="14.52"/>
    <path class="cls-1" d="M294.76,37.72h2.27v-6.38c0-1.58,1.06-3.08,2.66-3.08s2.31,1.06,2.31,3.04v6.42h2.24v-6.42c0-.7-.04-1.25-.2-1.83,.48-.68,1.34-1.21,2.22-1.21,1.41,0,2.2,.99,2.2,2.86v6.6h2.27v-6.6c0-2.99-1.3-4.73-3.78-4.77-1.21-.02-2.73,.53-3.41,1.72-.57-1.19-1.5-1.69-3.04-1.72-1.28-.02-2.82,.62-3.48,1.98v-1.76h-2.27v11.15Z"/>
    <path class="cls-1" d="M314.93,31.98c0-2.22,1.41-3.76,3.48-3.78,1.91-.04,3.5,1.5,3.5,3.85s-1.45,3.98-3.5,3.96c-2.16-.02-3.48-1.65-3.48-4.03Zm-2.27,8.95h2.27v-5.26c.7,1.45,2.27,2.2,3.76,2.2,3.21,.02,5.46-2.38,5.46-5.87s-2.18-5.7-5.43-5.65c-1.63,.02-3.08,.86-3.78,2.07v-1.85h-2.27v14.37Z"/>
    <path class="cls-1" d="M328.37,32.11c0-2.2,1.41-3.89,3.5-3.87,2.16,.02,3.48,1.67,3.48,3.74,0,2.53-1.41,4.09-3.48,4.14-1.96,.02-3.5-1.45-3.5-4Zm3.19,5.85c1.63-.04,3.1-.86,3.78-2.2v1.96h2.24v-11.15h-2.24v1.8c-.75-1.34-2.29-2-3.78-2-3.23-.02-5.46,2.44-5.46,5.79s2.18,5.92,5.46,5.81Z"/>
    <path class="cls-1" d="M345.27,37.94c2.6,0,4.62-1.72,5.17-3.94h-2.24c-.35,1.23-1.47,2.18-2.99,2.13-1.94-.04-3.39-1.69-3.39-3.98s1.43-4.03,3.39-4.03c1.52,0,2.64,.97,2.99,2.22h2.24c-.53-2.35-2.57-4.03-5.24-4.03-3.1,0-5.65,2.35-5.65,5.83s2.6,5.79,5.72,5.79Z"/>
    <path class="cls-1" d="M358.36,37.72v-1.8c-1.45,.07-2.11-.46-2.11-1.8l-.02-4.62h1.69v-1.8h-1.69l-.02-4.51h-2.22v4.51h-1.58v1.8h1.58l.02,5.04c0,2.6,2.09,3.3,4.36,3.19Z"/>
    <path class="cls-1" d="M296.34,61.47v-1.8c-1.45,.07-2.11-.46-2.11-1.8l-.02-4.62h1.69v-1.8h-1.69l-.02-4.51h-2.22v4.51h-1.58v1.8h1.58l.02,5.04c0,2.6,2.09,3.3,4.36,3.19Z"/>
    <path class="cls-1" d="M298.28,61.47h2.24v-5.85c0-2.29,1.06-3.54,2.86-3.54,1.63,0,2.66,1.23,2.66,3.43v5.96h2.24v-5.96c0-3.08-1.67-5.35-4.69-5.35-1.36,0-2.6,.75-3.08,1.76v-4.99h-2.24v14.54Z"/>
    <path class="cls-1" d="M312.49,55.86c0-2.2,1.41-3.89,3.5-3.87,2.16,.02,3.48,1.67,3.48,3.74,0,2.53-1.41,4.09-3.48,4.14-1.96,.02-3.5-1.45-3.5-4Zm3.19,5.85c1.63-.04,3.1-.86,3.78-2.2v1.96h2.24v-11.15h-2.24v1.8c-.75-1.34-2.29-2-3.78-2-3.23-.02-5.46,2.44-5.46,5.79s2.18,5.92,5.46,5.81Z"/>
    <path class="cls-1" d="M329.63,61.47v-1.8c-1.45,.07-2.11-.46-2.11-1.8l-.02-4.62h1.69v-1.8h-1.69l-.02-4.51h-2.22v4.51h-1.58v1.8h1.58l.02,5.04c0,2.6,2.09,3.3,4.36,3.19Z"/>
    <polygon class="cls-1" points="339.26 61.47 341.7 61.47 341.7 53.06 345.62 60.41 347.09 60.41 350.86 53.06 350.86 61.47 353.3 61.47 353.3 46.95 351.36 46.95 346.28 56.43 341.22 46.95 339.26 46.95 339.26 61.47"/>
    <path class="cls-1" d="M357.5,55.86c0-2.2,1.41-3.89,3.5-3.87,2.16,.02,3.48,1.67,3.48,3.74,0,2.53-1.41,4.09-3.48,4.14-1.96,.02-3.5-1.45-3.5-4Zm3.19,5.85c1.63-.04,3.1-.86,3.78-2.2v1.96h2.24v-11.15h-2.24v1.8c-.75-1.34-2.29-2-3.78-2-3.23-.02-5.46,2.44-5.46,5.79s2.18,5.92,5.46,5.81Z"/>
    <path class="cls-1" d="M374.64,61.47v-1.8c-1.45,.07-2.11-.46-2.11-1.8l-.02-4.62h1.69v-1.8h-1.69l-.02-4.51h-2.22v4.51h-1.58v1.8h1.58l.02,5.04c0,2.6,2.09,3.3,4.36,3.19Z"/>
    <path class="cls-1" d="M382.54,61.47v-1.8c-1.45,.07-2.11-.46-2.11-1.8l-.02-4.62h1.69v-1.8h-1.69l-.02-4.51h-2.22v4.51h-1.58v1.8h1.58l.02,5.04c0,2.6,2.09,3.3,4.36,3.19Z"/>
    <path class="cls-1" d="M386.78,54.8c.26-1.69,1.58-2.95,3.37-2.95s3.23,1.39,3.39,2.93l-6.75,.02Zm3.5,6.89c2.51,0,4.62-1.72,5.35-3.94h-2.27c-.44,1.23-1.58,2.16-3.19,2.13-1.83,0-3.32-1.36-3.43-3.3h8.98c.22-3.85-2.11-6.51-5.59-6.51-3.04,0-5.65,2.31-5.65,5.87s2.77,5.74,5.81,5.74Z"/>
    <path class="cls-1" d="M397.69,53.55l-.02,7.92h2.27l.02-7.52c0-1.14,.57-1.8,2.09-1.85v-1.78c-2.24,0-4.36,.7-4.36,3.23Z"/>
    <path class="cls-1" d="M408.25,61.67c2.71,.04,4.22-1.3,4.25-3.37,0-2.18-1.41-3.04-4.2-3.41-1.54-.2-2-.86-2-1.63-.02-.9,.7-1.36,1.65-1.36,1.19,.02,1.98,.59,1.98,2.02h2.16c.07-2.4-1.65-3.78-4.14-3.81-2.2-.04-3.89,1.1-3.89,3.15,0,2.18,1.52,3.08,3.89,3.39,1.67,.2,2.31,.75,2.29,1.76-.02,.97-.84,1.52-1.98,1.45-1.23-.07-1.94-.95-1.96-2.09h-2.24c-.02,2.49,1.89,3.83,4.2,3.89Z"/>
    <path class="cls-1" d="M415.93,61.47c.86,0,1.54-.64,1.54-1.52s-.68-1.52-1.54-1.52-1.5,.66-1.5,1.52,.66,1.52,1.5,1.52Z"/>
    <polygon class="cls-1" points="417.44 44.92 417.44 41.47 416.18 41.47 416.18 40.72 419.52 40.72 419.52 41.47 418.27 41.47 418.27 44.92 417.44 44.92"/>
    <polygon class="cls-1" points="420.06 44.92 420.06 40.72 420.95 40.72 422.18 42.53 423.4 40.72 424.29 40.72 424.29 44.92 423.47 44.92 423.47 42 422.18 43.91 420.88 42.01 420.88 44.92 420.06 44.92"/>
  </g>
  <g>
    <rect class="cls-1" x="290.38" y="23.2" width="2.42" height="14.52"/>
    <path class="cls-1" d="M294.76,37.72h2.27v-6.38c0-1.58,1.06-3.08,2.66-3.08s2.31,1.06,2.31,3.04v6.42h2.24v-6.42c0-.7-.04-1.25-.2-1.83,.48-.68,1.34-1.21,2.22-1.21,1.41,0,2.2,.99,2.2,2.86v6.6h2.27v-6.6c0-2.99-1.3-4.73-3.78-4.77-1.21-.02-2.73,.53-3.41,1.72-.57-1.19-1.5-1.69-3.04-1.72-1.28-.02-2.82,.62-3.48,1.98v-1.76h-2.27v11.15Z"/>
    <path class="cls-1" d="M314.93,31.98c0-2.22,1.41-3.76,3.48-3.78,1.91-.04,3.5,1.5,3.5,3.85s-1.45,3.98-3.5,3.96c-2.16-.02-3.48-1.65-3.48-4.03Zm-2.27,8.95h2.27v-5.26c.7,1.45,2.27,2.2,3.76,2.2,3.21,.02,5.46-2.38,5.46-5.87s-2.18-5.7-5.43-5.65c-1.63,.02-3.08,.86-3.78,2.07v-1.85h-2.27v14.37Z"/>
    <path class="cls-1" d="M328.37,32.11c0-2.2,1.41-3.89,3.5-3.87,2.16,.02,3.48,1.67,3.48,3.74,0,2.53-1.41,4.09-3.48,4.14-1.96,.02-3.5-1.45-3.5-4Zm3.19,5.85c1.63-.04,3.1-.86,3.78-2.2v1.96h2.24v-11.15h-2.24v1.8c-.75-1.34-2.29-2-3.78-2-3.23-.02-5.46,2.44-5.46,5.79s2.18,5.92,5.46,5.81Z"/>
    <path class="cls-1" d="M345.27,37.94c2.6,0,4.62-1.72,5.17-3.94h-2.24c-.35,1.23-1.47,2.18-2.99,2.13-1.94-.04-3.39-1.69-3.39-3.98s1.43-4.03,3.39-4.03c1.52,0,2.64,.97,2.99,2.22h2.24c-.53-2.35-2.57-4.03-5.24-4.03-3.1,0-5.65,2.35-5.65,5.83s2.6,5.79,5.72,5.79Z"/>
    <path class="cls-1" d="M358.36,37.72v-1.8c-1.45,.07-2.11-.46-2.11-1.8l-.02-4.62h1.69v-1.8h-1.69l-.02-4.51h-2.22v4.51h-1.58v1.8h1.58l.02,5.04c0,2.6,2.09,3.3,4.36,3.19Z"/>
    <path class="cls-1" d="M296.34,61.47v-1.8c-1.45,.07-2.11-.46-2.11-1.8l-.02-4.62h1.69v-1.8h-1.69l-.02-4.51h-2.22v4.51h-1.58v1.8h1.58l.02,5.04c0,2.6,2.09,3.3,4.36,3.19Z"/>
    <path class="cls-1" d="M298.28,61.47h2.24v-5.85c0-2.29,1.06-3.54,2.86-3.54,1.63,0,2.66,1.23,2.66,3.43v5.96h2.24v-5.96c0-3.08-1.67-5.35-4.69-5.35-1.36,0-2.6,.75-3.08,1.76v-4.99h-2.24v14.54Z"/>
    <path class="cls-1" d="M312.49,55.86c0-2.2,1.41-3.89,3.5-3.87,2.16,.02,3.48,1.67,3.48,3.74,0,2.53-1.41,4.09-3.48,4.14-1.96,.02-3.5-1.45-3.5-4Zm3.19,5.85c1.63-.04,3.1-.86,3.78-2.2v1.96h2.24v-11.15h-2.24v1.8c-.75-1.34-2.29-2-3.78-2-3.23-.02-5.46,2.44-5.46,5.79s2.18,5.92,5.46,5.81Z"/>
    <path class="cls-1" d="M329.63,61.47v-1.8c-1.45,.07-2.11-.46-2.11-1.8l-.02-4.62h1.69v-1.8h-1.69l-.02-4.51h-2.22v4.51h-1.58v1.8h1.58l.02,5.04c0,2.6,2.09,3.3,4.36,3.19Z"/>
    <polygon class="cls-1" points="339.26 61.47 341.7 61.47 341.7 53.06 345.62 60.41 347.09 60.41 350.86 53.06 350.86 61.47 353.3 61.47 353.3 46.95 351.36 46.95 346.28 56.43 341.22 46.95 339.26 46.95 339.26 61.47"/>
    <path class="cls-1" d="M357.5,55.86c0-2.2,1.41-3.89,3.5-3.87,2.16,.02,3.48,1.67,3.48,3.74,0,2.53-1.41,4.09-3.48,4.14-1.96,.02-3.5-1.45-3.5-4Zm3.19,5.85c1.63-.04,3.1-.86,3.78-2.2v1.96h2.24v-11.15h-2.24v1.8c-.75-1.34-2.29-2-3.78-2-3.23-.02-5.46,2.44-5.46,5.79s2.18,5.92,5.46,5.81Z"/>
    <path class="cls-1" d="M374.64,61.47v-1.8c-1.45,.07-2.11-.46-2.11-1.8l-.02-4.62h1.69v-1.8h-1.69l-.02-4.51h-2.22v4.51h-1.58v1.8h1.58l.02,5.04c0,2.6,2.09,3.3,4.36,3.19Z"/>
    <path class="cls-1" d="M382.54,61.47v-1.8c-1.45,.07-2.11-.46-2.11-1.8l-.02-4.62h1.69v-1.8h-1.69l-.02-4.51h-2.22v4.51h-1.58v1.8h1.58l.02,5.04c0,2.6,2.09,3.3,4.36,3.19Z"/>
    <path class="cls-1" d="M386.78,54.8c.26-1.69,1.58-2.95,3.37-2.95s3.23,1.39,3.39,2.93l-6.75,.02Zm3.5,6.89c2.51,0,4.62-1.72,5.35-3.94h-2.27c-.44,1.23-1.58,2.16-3.19,2.13-1.83,0-3.32-1.36-3.43-3.3h8.98c.22-3.85-2.11-6.51-5.59-6.51-3.04,0-5.65,2.31-5.65,5.87s2.77,5.74,5.81,5.74Z"/>
    <path class="cls-1" d="M397.69,53.55l-.02,7.92h2.27l.02-7.52c0-1.14,.57-1.8,2.09-1.85v-1.78c-2.24,0-4.36,.7-4.36,3.23Z"/>
    <path class="cls-1" d="M408.25,61.67c2.71,.04,4.22-1.3,4.25-3.37,0-2.18-1.41-3.04-4.2-3.41-1.54-.2-2-.86-2-1.63-.02-.9,.7-1.36,1.65-1.36,1.19,.02,1.98,.59,1.98,2.02h2.16c.07-2.4-1.65-3.78-4.14-3.81-2.2-.04-3.89,1.1-3.89,3.15,0,2.18,1.52,3.08,3.89,3.39,1.67,.2,2.31,.75,2.29,1.76-.02,.97-.84,1.52-1.98,1.45-1.23-.07-1.94-.95-1.96-2.09h-2.24c-.02,2.49,1.89,3.83,4.2,3.89Z"/>
    <path class="cls-1" d="M415.93,61.47c.86,0,1.54-.64,1.54-1.52s-.68-1.52-1.54-1.52-1.5,.66-1.5,1.52,.66,1.52,1.5,1.52Z"/>
    <polygon class="cls-1" points="417.44 44.92 417.44 41.47 416.18 41.47 416.18 40.72 419.52 40.72 419.52 41.47 418.27 41.47 418.27 44.92 417.44 44.92"/>
    <polygon class="cls-1" points="420.06 44.92 420.06 40.72 420.95 40.72 422.18 42.53 423.4 40.72 424.29 40.72 424.29 44.92 423.47 44.92 423.47 42 422.18 43.91 420.88 42.01 420.88 44.92 420.06 44.92"/>
  </g>
</svg>